
<svg xmlns="http://www.w3.org/2000/svg" width="520" height="360" viewBox="0 0 520 360">
  <defs>
    <linearGradient id="p" x1="0" y1="0" x2="1" y2="1">
      <stop offset="0" stop-color="#ff69b4" stop-opacity="0.28"/>
      <stop offset="1" stop-color="#ffd1e8" stop-opacity="0.75"/>
    </linearGradient>
  </defs>
  <rect x="20" y="20" width="480" height="320" rx="28" fill="url(#p)"/>
  <circle cx="175" cy="150" r="56" fill="#ffe6f2" opacity="0.95"/>
  <path d="M110 275 Q175 210 240 275" fill="#ff69b4" opacity="0.35"/>
  <path d="M150 145 Q175 175 200 145" stroke="#ffffff" stroke-width="8" fill="none" opacity="0.9"/>
  <path d="M320 105c24 0 44 20 44 44v10h10c24 0 44 20 44 44s-20 44-44 44h-10v10c0 24-20 44-44 44s-44-20-44-44v-10h-10c-24 0-44-20-44-44s20-44 44-44h10v-10c0-24 20-44 44-44z" fill="#ffffff" opacity="0.18"/>
</svg>
